<mxfile host="app.diagrams.net" modified="2024-07-05T10:09:10.589Z" agent="Mozilla/5.0 (Macintosh; Intel Mac OS X 10_15_7) AppleWebKit/537.36 (KHTML, like Gecko) Chrome/125.0.0.0 Safari/537.36" version="24.6.3" etag="SscOKSbC0zht2sv6B5dW" type="github">
  <diagram name="第 1 页" id="uiTHZwsWxsDbXgJRG0q6">
    <mxGraphModel>
      <root>
        <mxCell id="0" />
        <mxCell id="1" parent="0" />
      </root>
    </mxGraphModel>
  </diagram>
</mxfile>
